<?xml version="1.0" encoding="UTF-8"?>
<svg width="78px" height="42px" viewBox="0 0 78 42" version="1.1" xmlns="http://www.w3.org/2000/svg" xmlns:xlink="http://www.w3.org/1999/xlink">
    <!-- Generator: Sketch 46.2 (44496) - http://www.bohemiancoding.com/sketch -->
    <title>original</title>
    <desc>Created with Sketch.</desc>
    <defs></defs>
    <g id="Page-1" stroke="none" stroke-width="1" fill="none" fill-rule="evenodd">
        <g id="original" fill="#666666">
            <path d="M18.09,12.64 L24.36,12.64 C24.66,11.74 24.87,10.81 25.02,9.85 L14.76,9.85 L14.76,19.45 C14.64,25.48 13.68,30.31 11.85,33.94 L10.23,32.5 C11.73,29.35 12.51,25 12.57,19.45 L12.57,7.72 L36.99,7.72 L36.99,9.85 L27.18,9.85 C27,10.81 26.76,11.74 26.46,12.64 L34.8,12.64 L34.8,24.1 L27.84,24.1 L27.84,31.54 C27.84,33.1 27.03,33.91 25.41,33.91 L22.38,33.91 L21.93,31.78 C22.89,31.87 23.79,31.93 24.66,31.93 C25.32,31.93 25.68,31.63 25.68,31.03 L25.68,24.1 L18.09,24.1 L18.09,12.64 Z M32.7,22.15 L32.7,19.27 L20.19,19.27 L20.19,22.15 L32.7,22.15 Z M20.19,17.41 L32.7,17.41 L32.7,14.62 L20.19,14.62 L20.19,17.41 Z M20.25,25.51 L22.14,26.41 C20.76,28.99 19.17,31.18 17.34,33.04 L15.54,31.78 C17.37,30.04 18.93,27.94 20.25,25.51 Z M32.43,25.48 C34.5,27.94 36.09,30.1 37.2,31.93 L35.4,33.16 C34.26,31.18 32.67,28.96 30.69,26.56 L32.43,25.48 Z M51.87,18.04 L45.48,18.04 L45.48,30.43 C45.48,31.12 45.84,31.48 46.62,31.48 L52.35,31.48 C53.37,31.48 54.03,31.21 54.27,30.73 C54.54,30.16 54.75,29.05 54.87,27.4 L56.91,28.06 C56.7,30.61 56.31,32.17 55.77,32.77 C55.29,33.25 54.33,33.49 52.92,33.49 L45.78,33.49 C44.1,33.49 43.29,32.71 43.29,31.18 L43.29,16.12 L53.97,16.12 L53.97,24.1 C53.94,25.72 53.1,26.56 51.45,26.62 C50.31,26.62 49.2,26.59 48.15,26.53 L47.61,24.49 C48.75,24.61 49.77,24.67 50.67,24.67 C51.45,24.67 51.87,24.25 51.87,23.44 L51.87,18.04 Z M48.06,6.76 L49.65,6.76 C52.26,9.52 54.78,12.43 57.18,15.49 L55.77,16.99 C53.19,13.57 50.94,10.84 49.02,8.8 C46.8,12.1 44.25,15.13 41.31,17.89 L40.05,16.15 C42.99,13.48 45.66,10.36 48.06,6.76 Z M58.95,9.13 L61.05,9.13 L61.05,27.82 L58.95,27.82 L58.95,9.13 Z M63.96,33.73 L59.31,33.73 L58.83,31.66 C60.36,31.75 61.83,31.81 63.21,31.81 C63.96,31.81 64.35,31.36 64.35,30.46 L64.35,6.58 L66.51,6.58 L66.51,31 C66.51,32.8 65.64,33.73 63.96,33.73 Z" id="原创-copy"></path>
            <path d="M9,1 C4.581722,1 1,4.581722 1,9 L1,33 C1,37.418278 4.581722,41 9,41 L69,41 C73.418278,41 77,37.418278 77,33 L77,9 C77,4.581722 73.418278,1 69,1 L9,1 Z M9,0 L69,0 C73.9705627,0 78,4.02943725 78,9 L78,33 C78,37.9705627 73.9705627,42 69,42 L9,42 C4.02943725,42 0,37.9705627 0,33 L0,9 C0,4.02943725 4.02943725,0 9,0 Z" id="Rectangle-31-Copy" fill-rule="nonzero"></path>
        </g>
    </g>
</svg>