<?xml version="1.0" encoding="UTF-8"?>
<svg width="54px" height="36px" viewBox="0 0 54 36" version="1.1" xmlns="http://www.w3.org/2000/svg" xmlns:xlink="http://www.w3.org/1999/xlink">
    <!-- Generator: Sketch 46.2 (44496) - http://www.bohemiancoding.com/sketch -->
    <title>quote</title>
    <desc>Created with Sketch.</desc>
    <defs></defs>
    <g id="Page-1" stroke="none" stroke-width="1" fill="none" fill-rule="evenodd">
        <g id="ab测试-标注" transform="translate(-2321.000000, -64.000000)" fill="#222222">
            <path d="M2355.07019,80 C2355.70581,71.0000991 2360.58063,64 2366.5,64 C2366.66753,64 2366.83422,64.0056069 2367,64.0167074 L2367,69.0493489 C2366.83226,69.0166413 2366.66537,69 2366.5,69 C2363.77266,69 2360.63274,73.5262306 2360.08391,80 L2375,80 L2375,100 L2355,100 L2355,80 L2355.07019,80 Z M2321.07019,80 C2321.70581,71.0000991 2326.58063,64 2332.5,64 C2332.66753,64 2332.83422,64.0056069 2333,64.0167074 L2333,69.0493489 C2332.83226,69.0166413 2332.66537,69 2332.5,69 C2329.77266,69 2326.63274,73.5262306 2326.08391,80 L2341,80 L2341,100 L2321,100 L2321,80 L2321.07019,80 Z" id="quote"></path>
        </g>
    </g>
</svg>